<svg width="500" height="366" viewBox="0 0 500 366" fill="none" xmlns="http://www.w3.org/2000/svg">
  <path
    d="M299.375 347.12C254.156 360.638 211.346 366.764 170.945 365.497C130.544 364.23 95.8817 354.689 66.9566 336.873C38.0313 319.059 18.0946 291.827 7.14576 255.178C-3.86568 218.32 -2.15088 184.558 12.2904 153.893C26.7319 123.227 50.5241 96.3814 83.6671 73.3558C116.81 50.3302 155.992 32.058 201.211 18.5394C246.221 5.08325 288.858 -1.04798 329.123 0.14595C369.387 1.33964 404.019 10.7761 433.017 28.455C462.016 46.1342 481.989 73.2979 492.938 109.947C503.887 146.595 502.104 180.32 487.589 211.122C473.075 241.924 449.329 268.926 416.354 292.13C383.378 315.334 344.385 333.664 299.375 347.12Z"
    fill="#FFF9F2" />
</svg>
  